<?xml version="1.0" encoding="iso-8859-1"?>
<!-- Uploaded to: SVG Repo, www.svgrepo.com, Generator: SVG Repo Mixer Tools -->
<svg fill="#000000" height="800px" width="800px" version="1.1" id="Layer_1" xmlns="http://www.w3.org/2000/svg" xmlns:xlink="http://www.w3.org/1999/xlink" 
	 viewBox="0 0 503.984 503.984" xml:space="preserve">
<g>
	<g>
		<g>
			<path d="M503.834,136.083l-8.346,3.558c-24.277,6.955-41.19,10.359-56.277,10.359c-9.847,0-18.927-1.468-28.757-4.309
				c18.586,18.313,40.09,35.908,63.215,51.012l7.97,5.845c4.838-5.777,9.054-12.194,12.518-19.191
				C501.607,168.305,504.73,152.134,503.834,136.083z"/>
			<path d="M349.43,56.796c35.524,14.387,35.849,14.31,85.129-4.813l9.822-3.797l8.644-4.847
				c-7.074-6.357-23.339-20.045-44.066-31.437c-13.013-7.159-26.982-11.016-41.037-11.827l-13.56,16.717
				c-6.332,6.332-8.934,15.377-7.74,26.888C347.049,47.836,348.09,52.256,349.43,56.796z"/>
			<path d="M373.506,130.813c-0.358-0.341-0.64-0.717-0.939-1.101c-24.491-29.807-40.38-59.802-42.923-84.267
				c-1.707-16.452,2.551-30.413,12.322-40.388l2.765-3.413c-8.243,1.613-16.367,4.233-24.183,8.098
				c-7.305,3.618-13.961,8.064-19.934,13.184l1.852,28.45c21.12,64.811,38.187,116.105,122.377,168.388l1.152,0.862l12.262,10.846
				c11.469-3.695,21.905-9.404,30.984-16.862l-5.282-3.874C428.64,187.662,397.169,159.348,373.506,130.813z"/>
			<path d="M440.734,67.9c-27.93,10.837-42.266,16.171-56.004,16.171c-8.098,0-16.043-1.903-26.385-5.572
				c6.545,12.578,15.565,25.865,26.496,39.245c41.387,17.92,54.946,20.079,105.438,5.641l10.948-4.685
				c-2.014-8.124-5.018-16.111-9.225-23.757c-9.165-16.666-19.78-30.396-26.948-38.878l-13.969,7.817L440.734,67.9z"/>
			<path d="M285.904,55.64l-0.401-2.091l-0.836-12.885c-8.226,11.861-13.815,25.634-16.085,40.704l-0.145,0.973
				c-3.157,21.931-1.229,43.511,5.274,63.377L145.599,273.82c-13.525-4.403-27.81-6.793-42.487-6.793
				c-5.504,0-11.059,0.41-16.64,1.05l2.278,2.022c89.404,55.706,107.017,109.798,129.323,178.244l0.41,2.091l0.836,12.885
				c8.218-11.861,13.815-25.634,16.085-40.704l0.137-0.973c3.166-21.973,1.22-43.588-5.308-63.488l128.034-128.043
				c13.56,4.437,27.878,6.844,42.607,6.844c5.495,0,11.059-0.41,16.631-1.058l-2.278-2.014
				C325.831,178.179,308.21,124.086,285.904,55.64z M223.141,341.097c-6.323-12.86-14.601-24.781-24.994-35.174
				c-10.453-10.453-22.443-18.799-35.379-25.131l118.016-118.008c6.323,12.894,14.626,24.849,25.054,35.277
				c10.419,10.419,22.366,18.748,35.268,25.079L223.141,341.097z"/>
			<path d="M64.766,353.983c9.847,0,18.927,1.459,28.757,4.309c-18.586-18.313-40.09-35.908-63.215-51.021l-7.97-5.837
				c-4.838,5.777-9.054,12.194-12.51,19.191c-7.45,15.053-10.581,31.223-9.677,47.275l8.337-3.558
				C32.766,357.379,49.679,353.983,64.766,353.983z"/>
			<path d="M154.55,447.188c-35.524-14.387-35.849-14.31-85.129,4.813l-9.822,3.797l-8.644,4.847
				c7.074,6.357,23.339,20.045,44.066,31.437c13.013,7.159,26.982,11.017,41.037,11.827l13.56-16.717
				c6.332-6.332,8.934-15.377,7.74-26.889C156.931,456.148,155.89,451.728,154.55,447.188z"/>
			<path d="M79.137,284.217l-1.152-0.862l-12.262-10.846c-11.469,3.695-21.905,9.404-30.985,16.862l5.282,3.883
				c35.319,23.066,66.79,51.379,90.453,79.915c0.358,0.341,0.64,0.717,0.939,1.109c24.491,29.807,40.38,59.793,42.923,84.267
				c1.707,16.444-2.552,30.404-12.322,40.38l-2.765,3.422c8.243-1.613,16.367-4.241,24.183-8.107
				c7.305-3.61,13.961-8.064,19.934-13.175l-1.852-28.459C180.394,387.803,163.327,336.5,79.137,284.217z"/>
			<path d="M63.245,436.083c27.93-10.837,42.266-16.171,56.004-16.171c8.098,0,16.043,1.903,26.385,5.572
				c-6.545-12.578-15.565-25.865-26.496-39.245c-41.387-17.92-54.946-20.079-105.438-5.641l-10.948,4.685
				c2.014,8.124,5.018,16.111,9.225,23.757c9.165,16.666,19.78,30.396,26.948,38.878l13.969-7.817L63.245,436.083z"/>
		</g>
	</g>
</g>
</svg>